<?xml version="1.0" encoding="utf-8"?>
<!-- Svg Vector Icons : http://www.onlinewebfonts.com/icon -->
<!DOCTYPE svg PUBLIC "-//W3C//DTD SVG 1.1//EN" "http://www.w3.org/Graphics/SVG/1.1/DTD/svg11.dtd">
<svg version="1.1" xmlns="http://www.w3.org/2000/svg" xmlns:xlink="http://www.w3.org/1999/xlink" x="0px" y="0px" viewBox="0 0 1000 1000" enable-background="new 0 0 1000 1000" xml:space="preserve">
<metadata> Svg Vector Icons : http://www.onlinewebfonts.com/icon </metadata>
<g><g transform="translate(0.000000,477.000000) scale(0.100000,-0.100000)"><path d="M422.4,4304.2c-109.1-34.5-218.3-124.5-273.8-225.9c-59.4-114.9-59.4-352.3,0-467.2c24.9-42.1,74.7-105.3,114.9-137.9c113-91.9,210.6-116.8,478.7-116.8c225.9,0,239.3,1.9,283.4,47.9c51.7,51.7,63.2,151.3,23,203c-46,61.3-107.2,74.7-319.8,74.7c-203,0-214.4,1.9-262.3,49.8c-40.2,42.1-47.9,61.3-38.3,126.4c17.2,134,32.6,139.8,379.1,145.5c281.5,5.8,310.2,3.8,369.5-32.5c70.8-44,141.7-139.8,201-270c26.8-59.4,185.7-949.7,518.9-2900.7c264.2-1547,490.2-2841.4,499.7-2875.8c44-141.7,260.4-319.7,482.5-396.3l118.7-40.2l2642.3-5.7c1916.6-3.8,2672.9,0,2757.1,15.3c270,51.7,515.1,233.6,624.2,465.3c80.4,174.2,145.5,449.9,352.3,1478.1C9568.8,411.7,9900,2169.4,9900,2230.6c0,21.1-24.9,63.2-55.5,93.8l-55.5,55.5H6061.1H2333.2l-55.5-55.5c-70.8-72.8-74.7-157-7.7-222.1l46-47.9h3611.1c2065.9,0,3609.2-7.7,3609.2-17.2c0-40.2-321.7-1732.8-478.7-2512.1c-189.6-953.5-273.8-1313.5-327.4-1418.8c-49.8-99.6-147.4-191.5-258.5-247l-93.8-45.9H5716.4c-2985,0-2774.4-9.6-2937.1,139.8l-76.6,70.8L2212.6,886.5c-438.5,2556.1-497.8,2873.9-545.7,2977.3c-113,231.7-285.3,402.1-455.7,449.9C1104,4342.5,525.8,4334.9,422.4,4304.2z"/><path d="M3757.7,1681.1c-49.8-40.2-61.3-65.1-61.3-124.5c0-68.9,46-555.3,67-721.8l11.5-80.4l-585.9-5.7l-587.8-5.7l-46-53.6c-59.4-70.8-59.4-155.1,1.9-214.4l45.9-47.9h595.5c459.5,0,597.4-5.7,603.1-23c13.4-42.1,99.6-943.9,91.9-957.3c-3.8-9.6-250.8-15.3-549.5-15.3c-539.9,0-541.9,0-582.1-44c-59.4-63.2-55.5-166.6,7.7-225.9l49.8-45.9l559.1-5.7l559.1-5.8l42.1-432.7c36.4-379.1,47.9-440.4,82.3-476.8c78.5-82.3,195.3-74.6,256.6,19.2c28.7,44,28.7,74.7-7.7,436.6c-23,214.4-40.2,404-40.2,423.1c0,30.6,49.8,32.6,689.3,32.6h689.3V-1323c0-425.1,0-430.8,45.9-482.5c63.2-74.6,170.4-74.6,233.6,0c45.9,51.7,45.9,57.4,45.9,482.5v428.9h695h695l-42.1-405.9c-46-461.4-40.2-505.5,67-551.4c53.6-21.1,70.8-21.1,126.4,5.7c84.3,40.2,95.7,86.2,134,501.7c15.3,180,34.5,352.3,38.3,386.8L7700-896l440.4,5.8l442.3,5.7l45.9,53.6c59.4,70.8,59.4,155.1-1.9,214.4l-46,47.9h-423.1h-421.2v51.7c0,65.1,74.7,844.4,88.1,901.8l7.7,42.1h486.3c268,0,501.6,5.7,518.9,11.5c15.3,7.7,44,38.3,59.3,68.9c42.1,80.4,19.2,162.7-55.5,208.7c-55.5,32.5-101.5,36.4-520.8,36.4H7859l42.1,407.8c46,459.5,40.2,503.6-67,549.5c-53.6,21.1-70.8,21.1-126.4-5.7c-82.3-40.2-91.9-76.6-132.1-520.8c-17.2-189.6-36.4-363.8-42.1-386.8l-7.7-44h-775.4h-775.4V1191v438.5l-61.3,51.7c-72.8,61.3-155.1,55.5-220.2-21.1c-42.1-46-44-59.4-44-478.7V752.5H4874c-427,0-775.4,7.7-775.4,15.3c0,40.2-78.5,786.9-88.1,829.1c-13.4,65.1-61.3,109.1-134,124.5C3830.5,1729,3805.6,1721.3,3757.7,1681.1z M5649.4-70.8v-497.8H4941c-388.7,0-708.4,1.9-708.4,5.7c0,1.9-21.1,214.5-47.9,472.9c-26.8,258.5-47.9,480.6-47.9,494c0,17.2,164.7,23,756.3,23h756.3V-70.8z M7487.5,375.3c0-65.1-74.7-844.4-88.1-901.8l-7.7-42.1l-704.6,3.8l-702.7,5.7L5978.7-90c-1.9,256.6,0,478.7,5.7,492.1c5.7,19.2,170.4,24.9,756.3,24.9h746.7V375.3z"/><path d="M200.3,407.9C95,365.7,66.2,226,144.7,149.4l46-47.9h564.8h564.8l38.3,49.8c55.5,70.8,51.7,162.7-9.6,220.2l-49.8,46l-528.4,3.8C479.8,423.2,221.3,417.4,200.3,407.9z"/><path d="M811-597.3c-57.4-40.2-76.6-149.3-36.4-210.6c47.9-72.8,143.6-90,478.7-82.3l302.5,5.7l46,53.6c59.4,70.8,59.4,155.1-1.9,214.4c-45.9,47.9-49.8,47.9-396.3,47.9C918.3-568.6,843.6-574.4,811-597.3z"/><path d="M470.2-1592.9c-61.3-59.4-61.3-143.6-1.9-214.5l46-53.6l620.4-5.7c664.4-3.8,687.4-1.9,741,93.8c32.6,57.4,17.2,136-36.4,189.6c-36.4,36.4-67,38.3-679.7,38.3H516.2L470.2-1592.9z"/><path d="M3700.3-2887.3c-139.8-70.8-329.3-329.3-329.3-451.9c0-105.3,122.5-187.6,216.4-145.5c23,11.5,86.2,82.3,137.9,160.8l95.7,141.7l2339.7,9.6c2309.1,9.6,2341.6,9.6,2378,47.9c67,65.1,70.8,147.4,11.5,216.3l-51.7,61.3h-2357H3782.6L3700.3-2887.3z"/><path d="M2840.6-3524.9c-308.3-99.6-501.6-419.3-444.2-733.3c40.2-218.3,170.4-384.8,379.1-482.5c90-42.1,132.1-49.8,270-49.8c135.9,1.9,180,9.6,270,53.6c275.7,132.1,428.9,451.9,354.2,737.1c-51.7,201-189.6,367.6-373.4,450C3185.2-3500,2953.6-3488.5,2840.6-3524.9z M3166.1-3850.4c34.5-13.4,86.2-53.6,114.9-86.2c141.7-170.4,90-411.7-109.1-501.6c-97.6-44.1-160.8-46-262.3-5.8c-116.8,47.9-189.6,157-189.6,289.1c0,57.4,11.5,126.4,26.8,155.1C2823.4-3850.4,3009.1-3783.3,3166.1-3850.4z"/><path d="M7742.2-3524.9c-308.3-99.6-501.7-419.3-444.2-733.3c40.2-218.3,170.4-384.8,379.1-482.5c141.7-65.1,382.9-68.9,522.7-5.7c283.4,126.4,446.1,455.7,371.4,746.7c-51.7,201-189.6,367.6-373.4,450C8086.8-3500,7855.1-3488.5,7742.2-3524.9z M8067.7-3850.4c34.5-13.4,86.2-53.6,114.9-86.2c141.7-170.4,90-411.7-109.1-501.6c-97.6-44.1-160.8-46-262.3-5.8c-116.8,47.9-189.6,157-189.6,289.1c0,57.4,11.5,126.4,26.8,155.1C7724.9-3850.4,7910.6-3783.3,8067.7-3850.4z"/></g></g>
</svg>